MOVIE RIPPED FROM THE DIAMOND EDITION

When an arrogant prince is cursed to become a Beast, the only way to break the spell is to love and be loved in return. But who could ever learn to love a Beast? After he imprisons Belle, a bookworm who dreams of life outside her provincial village, he sees her as difficult and stubborn while she views him as a monster. But the two soon taste the bitter-sweetness of finding you can change and learning you were wrong.

Format : MPEG-4
Format profile : Base Media / Version 2
Codec ID : mp42
File size : 1 000 MiB
Duration : 1h 27mn
Overall bit rate : 1 589 Kbps
Encoded date : UTC 2010-11-22 17:42:29
Tagged date : UTC 2010-11-23 00:31:08


Video
ID : 1
Format : AVC
Format/Info : Advanced Video Codec
Format profile : Main@L4.0
Format settings, CABAC : Yes
Format settings, ReFrames : 3 frames
Codec ID : avc1
Codec ID/Info : Advanced Video Coding
Duration : 1h 27mn
Bit rate mode : Variable
Bit rate : 1 425 Kbps
Width : 720 pixels
Height : 570 pixels
Display aspect ratio : 16:9
Frame rate mode : Variable
Frame rate : 25.000 fps
Minimum frame rate : 12.500 fps
Maximum frame rate : 89.054 fps
Color space : YUV
Chroma subsampling : 4:2:0
Bit depth : 8 bits
Scan type : Progressive
Bits/(Pixel*Frame) : 0.139
Stream size : 897 MiB (90%)
Writing library : x264 core 65

Language : English
Encoded date : UTC 2010-11-22 17:42:29
Tagged date : UTC 2010-11-23 00:31:08
Color primaries : BT.601-6 525, BT.1358 525, BT.1700 NTSC, SMPTE 170M
Transfer characteristics : BT.709-5, BT.1361
Matrix coefficients : BT.601-6 525, BT.1358 525, BT.1700 NTSC, SMPTE 170M

Audio
ID : 2
Format : AAC
Format/Info : Advanced Audio Codec
Format version : Version 4
Format profile : LC
Codec ID : 40
Duration : 1h 27mn
Bit rate mode : Variable
Bit rate : 160 Kbps
Maximum bit rate : 254 Kbps
Channel(s) : 2 channels
Channel positions : Front: L R
Sampling rate : 48.0 KHz
Stream size : 101 MiB (10%)
Language : English
Encoded date : UTC 2010-11-22 17:42:29
Tagged date : UTC 2010-11-23 00:31:03